<svg width="103" height="103" viewBox="0 0 103 103" fill="none" xmlns="http://www.w3.org/2000/svg">
<g opacity="0.1">
<path opacity="0.1" d="M102 99.6164V102H99.6164" stroke="#20263C" stroke-miterlimit="10"/>
<path opacity="0.1" d="M95.04 102H5.67181" stroke="#20263C" stroke-miterlimit="10" stroke-dasharray="5.77 5.77"/>
<path opacity="0.1" d="M3.38357 102H1V99.6164" stroke="#20263C" stroke-miterlimit="10"/>
<path opacity="0.1" d="M1 95.032V5.67181" stroke="#20263C" stroke-miterlimit="10" stroke-dasharray="5.77 5.77"/>
<path opacity="0.1" d="M1 3.38357V1H3.38357" stroke="#20263C" stroke-miterlimit="10"/>
<path opacity="0.1" d="M7.96796 1H97.3282" stroke="#20263C" stroke-miterlimit="10" stroke-dasharray="5.77 5.77"/>
<path opacity="0.1" d="M99.6164 1H102V3.38357" stroke="#20263C" stroke-miterlimit="10"/>
<path opacity="0.1" d="M102 7.96005V97.3282" stroke="#20263C" stroke-miterlimit="10" stroke-dasharray="5.77 5.77"/>
</g>
<path d="M68.185 57.4271C67.3786 56.5339 66.6946 55.5372 66.151 54.4635C65.2924 52.7805 64.1055 51.2864 62.6605 50.0693C61.2155 48.8522 59.5414 47.9365 57.737 47.3763C56.1592 46.8885 54.5081 46.6814 52.8586 46.7646C54.0592 46.696 55.2413 47.0836 56.168 47.8498C57.0948 48.616 57.6979 49.7041 57.8562 50.8961C58.2903 53.4717 59.4317 55.8759 61.1533 57.8402C62.8748 59.8045 65.1086 61.2514 67.605 62.0194C70.4597 62.8967 73.5186 62.8495 76.3448 61.8844C73.1967 61.3709 70.3182 59.7986 68.185 57.4271Z" fill="#E9E6EC"/>
<path d="M47.8133 46.9235C48.1802 48.5351 48.8255 50.0703 49.7202 51.4602C49.0669 50.451 48.8154 49.2336 49.0154 48.0482C49.2154 46.8627 49.8525 45.7952 50.8007 45.0563C52.8148 43.3904 54.3268 41.198 55.1686 38.7235C56.0102 36.2489 56.1485 33.5894 55.5679 31.0409C54.9052 28.1256 53.3332 25.4963 51.0788 23.5327C52.2012 26.5329 52.2657 29.8264 51.2616 32.8683C50.8772 34.0167 50.3429 35.1094 49.6725 36.1179C48.6433 37.7023 47.9421 39.477 47.6105 41.3371C47.2789 43.1971 47.3235 45.1048 47.7418 46.9473L47.8133 46.9235Z" fill="#E9E6EC"/>
<path d="M55.401 51.7859C54.8605 52.8606 53.9337 53.6913 52.8064 54.1112C51.6792 54.5312 50.4349 54.5094 49.3229 54.0503C46.8725 53.132 44.215 52.9132 41.6474 53.4183C39.0797 53.9234 36.7032 55.1326 34.7832 56.9106C32.594 58.9472 31.1083 61.6264 30.5403 64.5619C32.5774 62.0892 35.397 60.3851 38.5333 59.7312C39.7115 59.4901 40.9152 59.3966 42.1166 59.4531C44.0009 59.5508 45.8857 59.2699 47.6597 58.6272C49.4337 57.9844 51.0609 56.9929 52.4454 55.7109C53.657 54.5857 54.6627 53.2574 55.4169 51.7859H55.401Z" fill="#E9E6EC"/>
</svg>
