<svg width="608" height="608" viewBox="0 0 608 608" fill="none" xmlns="http://www.w3.org/2000/svg">
<g opacity="0.1">
<path opacity="0.1" d="M607 592.698V607H592.699" stroke="#071752" stroke-miterlimit="10"/>
<path opacity="0.1" d="M565.24 607H29.0309" stroke="#071752" stroke-miterlimit="10" stroke-dasharray="5.77 5.77"/>
<path opacity="0.1" d="M15.3014 607H1L1 592.698" stroke="#071752" stroke-miterlimit="10"/>
<path opacity="0.1" d="M1 565.192L1 29.0308" stroke="#071752" stroke-miterlimit="10" stroke-dasharray="5.77 5.77"/>
<path opacity="0.1" d="M1 15.3014L1 0.999939L15.3014 0.999939" stroke="#071752" stroke-miterlimit="10"/>
<path opacity="0.1" d="M42.808 0.999939L578.969 0.999939" stroke="#071752" stroke-miterlimit="10" stroke-dasharray="5.77 5.77"/>
<path opacity="0.1" d="M592.699 0.999939L607 0.999939V15.3014" stroke="#071752" stroke-miterlimit="10"/>
<path opacity="0.1" d="M607 42.7602V578.969" stroke="#071752" stroke-miterlimit="10" stroke-dasharray="5.77 5.77"/>
</g>
<path d="M404.11 339.562C399.271 334.203 395.167 328.223 391.906 321.781C386.754 311.683 379.633 302.719 370.963 295.416C362.293 288.113 352.248 282.619 341.422 279.258C331.955 276.331 322.048 275.089 312.152 275.587C319.355 275.176 326.448 277.501 332.008 282.099C337.569 286.696 341.187 293.224 342.137 300.376C344.741 315.83 351.59 330.256 361.92 342.041C372.249 353.827 385.652 362.508 400.63 367.117C417.758 372.38 436.111 372.097 453.069 366.306C434.18 363.226 416.909 353.791 404.11 339.562Z" fill="#414042"/>
<path d="M281.88 276.541C284.081 286.21 287.953 295.422 293.321 303.761C289.401 297.706 287.892 290.402 289.093 283.289C290.293 276.176 294.115 269.771 299.804 265.338C311.889 255.342 320.961 242.188 326.011 227.341C331.061 212.494 331.891 196.536 328.407 181.245C324.431 163.753 314.999 147.978 301.473 136.196C308.207 154.197 308.594 173.958 302.569 192.21C300.263 199.1 297.057 205.656 293.035 211.708C286.86 221.214 282.653 231.862 280.663 243.022C278.673 254.183 278.941 265.629 281.451 276.684L281.88 276.541Z" fill="#414042"/>
<path d="M327.406 305.716C324.163 312.164 318.602 317.148 311.839 319.667C305.076 322.187 297.609 322.057 290.938 319.302C276.235 313.792 260.29 312.479 244.885 315.51C229.479 318.54 215.219 325.795 203.699 336.464C190.564 348.683 181.65 364.758 178.242 382.372C190.465 367.535 207.382 357.311 226.2 353.387C233.269 351.94 240.492 351.38 247.7 351.719C259.006 352.305 270.314 350.619 280.959 346.763C291.602 342.907 301.366 336.957 309.672 329.265C316.942 322.514 322.976 314.545 327.502 305.716H327.406Z" fill="#414042"/>
</svg>
